<svg class="icon" viewBox="0 0 24 24">
  <path d="M5 4v16V4v5v-5Zm3 10h2.675q.275-.575.638-1.075t.812-.925H8q-.425 0-.712.288T7 13q0 .425.288.713T8 14Zm0 4h2.075Q10 17.5 10 17t.075-1H8q-.425 0-.713.288T7 17q0 .425.288.713T8 18Zm-3 4q-.825 0-1.412-.587T3 20V4q0-.825.588-1.412T5 2h7.175q.4 0 .763.15t.637.425l4.85 4.85q.275.275.425.638t.15.762V10.3q-.475-.15-.975-.225T17 10V9h-4q-.425 0-.712-.288T12 8V4H5v16h5.675q.275.575.638 1.075t.812.925H5Zm12-10q2.075 0 3.538 1.463T22 17q0 2.075-1.463 3.538T17 22q-2.075 0-3.537-1.463T12 17q0-2.075 1.463-3.537T17 12Zm0 8q.275 0 .463-.187t.187-.463q0-.275-.187-.462T17 18.7q-.275 0-.462.188t-.188.462q0 .275.188.463T17 20Zm0-6q-.475 0-.875.238t-.65.637q-.1.15-.025.313t.25.237q.15.075.3 0t.275-.2q.125-.175.313-.275t.412-.1q.325 0 .563.213t.237.537q0 .275-.15.463t-.35.387q-.15.15-.312.3t-.288.35q-.075.15-.112.313t-.038.337q0 .225.125.413t.325.187q.2 0 .325-.15t.125-.35q0-.275.15-.488t.35-.412q.3-.275.525-.612t.225-.738q0-.675-.5-1.138T17 14Z"/>
</svg>
