<svg class="icon" viewBox="0 0 240 240"><path d="M50 40v160zv50zm30 100h27l6-11q3-5 8-9H80q-4 0-7 3t-3 7q0 4 3 7t7 3m0 40h21l-1-10 1-10H80q-4 0-7 3t-3 7q0 4 3 7t7 3m-30 40q-8 0-14-6t-6-14V40q0-8 6-14t14-6h72l8 2 6 4 49 49 4 6 2 8v14l-10-2-11-1V90h-40q-4 0-7-3t-3-7V40H50v160h57l6 11q3 5 8 9zm120-100q21 0 35 15t15 35q0 21-15 35t-35 15q-21 0-35-15t-15-35q0-21 15-35t35-15m0 80q3 0 5-2t2-5q0-3-2-5t-5-1q-3 0-5 2t-2 5q0 3 2 5t5 1m0-60q-5 0-9 2t-7 6v3l3 2h3l3-2 3-3 4-1 6 2q3 2 2 5 0 3-2 5t-4 4l-3 3-3 4-1 3v3l1 4q1 2 3 2t3-2 1-4q0-3 2-5t4-4l5-6q2-3 2-7 0-7-5-11t-11-3"/></svg>
